<?xml version="1.0" standalone="no"?>
<!DOCTYPE svg PUBLIC "-//W3C//DTD SVG 20010904//EN"
 "http://www.w3.org/TR/2001/REC-SVG-20010904/DTD/svg10.dtd">
<svg version="1.0" xmlns="http://www.w3.org/2000/svg"
 width="512.000000pt" height="512.000000pt" viewBox="0 0 512.000000 512.000000"
 preserveAspectRatio="xMidYMid meet">

<g transform="translate(0.000000,512.000000) scale(0.100000,-0.100000)"
fill="#000000" stroke="none">
<path d="M1977 2456 c-21 -8 -48 -22 -59 -33 -26 -23 -602 -788 -651 -865 -81
-127 -111 -234 -111 -398 0 -94 3 -126 21 -174 43 -114 131 -203 247 -249 38
-16 75 -21 146 -21 87 -1 101 2 162 31 80 38 143 95 242 217 110 138 160 229
202 371 15 53 18 117 21 515 3 250 2 469 -2 487 -16 89 -130 151 -218 119z"/>
<path d="M3036 2455 c-50 -18 -94 -60 -107 -105 -7 -23 -9 -191 -6 -495 3
-403 6 -467 21 -520 42 -142 92 -233 202 -371 99 -122 162 -179 242 -217 61
-29 75 -32 162 -31 71 0 108 5 146 21 116 46 204 135 247 249 18 48 21 80 21
174 0 164 -30 271 -111 398 -49 77 -625 842 -651 865 -22 20 -86 46 -112 46
-8 0 -32 -6 -54 -14z"/>
</g>
</svg>
